<svg xmlns="http://www.w3.org/2000/svg" xmlns:xlink="http://www.w3.org/1999/xlink" width="21.06" height="21" viewBox="0 0 21.06 21">
  <defs>
    <style>
      .cls-1 {
        fill: #b8a9a4;
        fill-rule: evenodd;
        filter: url(#filter);
      }
    </style>
    <filter id="filter" x="1046.94" y="667" width="21.06" height="21" filterUnits="userSpaceOnUse">
      <feFlood result="flood" flood-color="#6b6b6b"/>
      <feComposite result="composite" operator="in" in2="SourceGraphic"/>
      <feBlend result="blend" in2="SourceGraphic"/>
    </filter>
  </defs>
  <path class="cls-1" d="M1057.46,667a10.5,10.5,0,0,0-4.23,20.117,9.578,9.578,0,0,1,.19-2.411c0.2-.852,1.35-5.721,1.35-5.721a4.093,4.093,0,0,1-.33-1.662c0-1.556.9-2.718,2.03-2.718a1.406,1.406,0,0,1,1.42,1.576,22.122,22.122,0,0,1-.93,3.727,1.627,1.627,0,0,0,1.66,2.022c2,0,3.34-2.555,3.34-5.583,0-2.3-1.55-4.023-4.38-4.023a4.981,4.981,0,0,0-5.19,5.028,3,3,0,0,0,.7,2.06,0.515,0.515,0,0,1,.15.585c-0.05.193-.17,0.658-0.22,0.843a0.357,0.357,0,0,1-.52.262c-1.48-.6-2.16-2.2-2.16-4.011,0-2.983,2.52-6.559,7.53-6.559,4.02,0,6.67,2.9,6.67,6.015,0,4.119-2.3,7.2-5.69,7.2a3.032,3.032,0,0,1-2.57-1.309s-0.61,2.419-.74,2.886a8.663,8.663,0,0,1-1.06,2.25A10.506,10.506,0,1,0,1057.46,667Z" transform="translate(-1046.94 -667)"/>
</svg>
