<svg xmlns="http://www.w3.org/2000/svg" style="height: 0; width: 0; position: absolute;">
    <symbol id="icon-search" viewBox="0 0 15 15">
        <path d="M1072.25,18.136a5.947,5.947,0,1,0-9.37-1.256l-3.43,3.428a1.545,1.545,0,0,0,0,2.2l0.02,0.02a1.558,1.558,0,0,0,2.2,0l3.42-3.428A5.966,5.966,0,0,0,1072.25,18.136Zm-7.03-1.384a3.988,3.988,0,1,1,5.64,0A4,4,0,0,1,1065.22,16.752Z"
              transform="translate(-1059 -8)"/>
    </symbol>
    <symbol id="icon-arrow_previous" viewBox="0 0 98.148 98.148">
        <path d="M64.691,0.587L17.617,47.659c-0.75,0.75-0.75,2.078,0,2.828l47.076,47.076c0.375,0.375,0.883,0.586,1.414,0.586   c0.529,0,1.039-0.211,1.414-0.586l12.986-12.987c0.391-0.391,0.586-0.901,0.586-1.414c0-0.512-0.195-1.022-0.586-1.414   L47.834,49.073l32.672-32.674c0.752-0.75,0.75-2.078,0-2.828L67.52,0.587C66.738-0.195,65.473-0.195,64.691,0.587z"
              fill="#cbcbca"/>
    </symbol>
    <symbol id="icon-arrow_next" viewBox="0 0 98.148 98.148">
        <path d="M33.458,97.562L80.531,50.49c0.75-0.75,0.75-2.078,0-2.828L33.456,0.586C33.081,0.211,32.572,0,32.042,0   c-0.53,0-1.039,0.211-1.414,0.586L17.641,13.573c-0.391,0.391-0.586,0.902-0.586,1.414c0,0.512,0.195,1.023,0.586,1.414   l32.674,32.674L17.642,81.75c-0.751,0.75-0.75,2.078,0,2.828l12.987,12.984C31.411,98.344,32.677,98.344,33.458,97.562z"
              fill="#cbcbca"/>
    </symbol>
    <symbol id="icon-plus" viewBox="0 0 533.333 533.333">
        <path d="M516.667,200H333.333V16.667C333.333,7.462,325.871,0,316.667,0h-100C207.462,0,200,7.462,200,16.667V200H16.667   C7.462,200,0,207.462,0,216.667v100c0,9.204,7.462,16.666,16.667,16.666H200v183.334c0,9.204,7.462,16.666,16.667,16.666h100   c9.204,0,16.667-7.462,16.667-16.666V333.333h183.333c9.204,0,16.667-7.462,16.667-16.666v-100   C533.333,207.462,525.871,200,516.667,200z"/>
    </symbol>
    <symbol id="icon-fb" viewBox="0 0 9 18">
        <path d="M943,674.948h1.929v-1.81a4.7,4.7,0,0,1,.621-2.79,3.475,3.475,0,0,1,2.993-1.355,12.575,12.575,0,0,1,3.458.334l-0.482,2.759a6.739,6.739,0,0,0-1.554-.224c-0.75,0-1.422.258-1.422,0.983v2.1h3.076l-0.215,2.693h-2.861V687h-3.614v-9.36H943v-2.693Z"
              transform="translate(-943 -669)"/>
    </symbol>
    <symbol id="icon-tw" viewBox="0 0 20.316 16.562">
        <path d="M1012.92,672.169a8.387,8.387,0,0,1-2.4.659,4.188,4.188,0,0,0,1.83-2.315,8.233,8.233,0,0,1-2.64,1.016,4.173,4.173,0,0,0-7.22,2.863,3.756,3.756,0,0,0,.11.953,11.828,11.828,0,0,1-8.6-4.372,4.2,4.2,0,0,0,1.291,5.587,4.142,4.142,0,0,1-1.89-.524v0.053a4.184,4.184,0,0,0,3.346,4.1,4.167,4.167,0,0,1-1.884.072,4.179,4.179,0,0,0,3.9,2.906,8.394,8.394,0,0,1-6.176,1.732,11.859,11.859,0,0,0,18.268-10.025c0-.182-0.01-0.362-0.02-0.541A8.46,8.46,0,0,0,1012.92,672.169Z"
              transform="translate(-992.594 -670.219)"/>
    </symbol>
    <symbol id="icon-p" viewBox="0 0 21.06 21">
        <path d="M1057.46,667a10.5,10.5,0,0,0-4.23,20.117,9.578,9.578,0,0,1,.19-2.411c0.2-.852,1.35-5.721,1.35-5.721a4.093,4.093,0,0,1-.33-1.662c0-1.556.9-2.718,2.03-2.718a1.406,1.406,0,0,1,1.42,1.576,22.122,22.122,0,0,1-.93,3.727,1.627,1.627,0,0,0,1.66,2.022c2,0,3.34-2.555,3.34-5.583,0-2.3-1.55-4.023-4.38-4.023a4.981,4.981,0,0,0-5.19,5.028,3,3,0,0,0,.7,2.06,0.515,0.515,0,0,1,.15.585c-0.05.193-.17,0.658-0.22,0.843a0.357,0.357,0,0,1-.52.262c-1.48-.6-2.16-2.2-2.16-4.011,0-2.983,2.52-6.559,7.53-6.559,4.02,0,6.67,2.9,6.67,6.015,0,4.119-2.3,7.2-5.69,7.2a3.032,3.032,0,0,1-2.57-1.309s-0.61,2.419-.74,2.886a8.663,8.663,0,0,1-1.06,2.25A10.506,10.506,0,1,0,1057.46,667Z"
              transform="translate(-1046.94 -667)"/>
    </symbol>
    <symbol id="arrow-back" viewBox="0 0 477.175 477.175">
        <path d="M145.188,238.575l215.5-215.5c5.3-5.3,5.3-13.8,0-19.1s-13.8-5.3-19.1,0l-225.1,225.1c-5.3,5.3-5.3,13.8,0,19.1l225.1,225   c2.6,2.6,6.1,4,9.5,4s6.9-1.3,9.5-4c5.3-5.3,5.3-13.8,0-19.1L145.188,238.575z"
        />
    </symbol>
    <symbol id="arrow-next" viewBox="0 0 477.175 477.175">
        <path d="M360.731,229.075l-225.1-225.1c-5.3-5.3-13.8-5.3-19.1,0s-5.3,13.8,0,19.1l215.5,215.5l-215.5,215.5   c-5.3,5.3-5.3,13.8,0,19.1c2.6,2.6,6.1,4,9.5,4c3.4,0,6.9-1.3,9.5-4l225.1-225.1C365.931,242.875,365.931,234.275,360.731,229.075z"/>
    </symbol>
</svg>
